# xmcd
#
# Track frame offsets: 
#        150
#        20123
#        39430
#        55853
#        74693
#        90031
#        105981
#        123838
#        140030
#        154718
#        172255
#        192045
#        205770
#        225737
#
# Disc length: 3418 seconds
#
# Revision: 0
# Processed by: cddbd v1.5.2PL0 Copyright (c) Steve Scherf et al.
# Submitted via: ExactAudioCopyFreeDBPlugin 1.0
#
DISCID=b90d580e
DTITLE=Jazmine Sullivan - Fearless (Deluxe Edition)
DYEAR=2008
DGENRE=Soul
TTITLE0=Bust Your Windows
TTITLE1=Need U Bad
TTITLE2=My Foolish Heart
TTITLE3=Lions, Tigers, and Bears
TTITLE4=Call Me Guilty
TTITLE5=One Night Stand
TTITLE6=After the Hurricane
TTITLE7=Dream Big
TTITLE8=Live a Lie
TTITLE9=Fear
TTITLE10=In Love with Another Man
TTITLE11=Switch!
TTITLE12=Need U Bad (Remix) (feat.T.I.)
TTITLE13=Dream Big (StoneBridge Remix)
EXTD=
EXTT0=
EXTT1=
EXTT2=
EXTT3=
EXTT4=
EXTT5=
EXTT6=
EXTT7=
EXTT8=
EXTT9=
EXTT10=
EXTT11=
EXTT12=
EXTT13=
PLAYORDER=
